<svg xmlns="http://www.w3.org/2000/svg" viewBox="0 0 1300 275">
   <linearGradient id="gradient" x1="0%" y1="0%" x2="100%" y2="0%">
      <stop offset="0%" style="stop-color:#6985C0;" />
      <stop offset="1000%" style="stop-color:#189D8A;" />
   </linearGradient>
	<path fill="url(#gradient)" d="M 0 215 L 145 0 L 289 215 L 255 215 L 222 166 L 74 166 L 80 157 L 216 157 L 135 35 L 14 215 Z M 309 215 L 309 71 L 294 71 L 294 62 L 309 62 C 309 18 309 0 387 0 L 387 10 C 341 11 341 22 340 62 L 376 62 L 376 71 L 340 71 L 340 215 Z M 401 215 L 401 71 L 386 71 L 386 62 L 401 62 C 401 18 401 0 479 0 L 479 10 C 433 11 433 22 432 62 L 468 62 L 468 71 L 432 71 L 432 215 Z M 556 218 C 438 218 438 60 556 60 C 674 60 678 218 556 218 V 211 C 632 211 632 65 556 65 C 480 65 480 211 556 211 Z M 669 215 L 668 60 C 682 60 698 70 698 84 C 713 64 753 51 783 64 L 776 76 C 753 62 713 74 700 94 L 700 215 Z M 953 215 L 953 0 L 923 0 L 923 193 C 923 203 943 215 953 215 Z M 923 73 C 730 -9 739 277 928 202 L 923 193 C 780 267 780 9 923 83 Z M 986 215 L 985 63 L 1017 63 L 1017 215 Z M 1001 45 L 979 23 L 1001 0 L 1023 23 Z M 1055 215 L 1055 71 L 1040 71 L 1040 62 L 1055 62 C 1055 18 1055 0 1133 0 L 1133 10 C 1087 11 1087 22 1086 62 L 1122 62 L 1122 71 L 1086 71 L 1086 215 Z M 1127 62 L 1157 62 L 1223 179 L 1290 62 L 1300 62 L 1181 275 L 1170 275 L 1210 205 Z" />
</svg>